<mxfile host="Electron" modified="2024-03-25T21:21:33.394Z" agent="Mozilla/5.0 (Windows NT 10.0; Win64; x64) AppleWebKit/537.36 (KHTML, like Gecko) draw.io/24.1.0 Chrome/120.0.6099.109 Electron/28.1.0 Safari/537.36" etag="wnlaQ5e7a5uV3iH29evP" version="24.1.0" type="device">
  <diagram id="18mzkU0RZdPfVMg9P9LY" name="Page-1">
    <mxGraphModel dx="1050" dy="1829" grid="1" gridSize="10" guides="1" tooltips="1" connect="1" arrows="1" fold="1" page="1" pageScale="1" pageWidth="1920" pageHeight="1200" math="0" shadow="0">
      <root>
        <mxCell id="0" />
        <mxCell id="1" parent="0" />
        <mxCell id="3cbIb5Ula2v3a6OA3O9i-25" value="" style="rounded=0;whiteSpace=wrap;html=1;fontSize=25;fillColor=#f5f5f5;fontColor=#333333;strokeColor=#666666;direction=east;strokeWidth=2;fontStyle=1" parent="1" vertex="1">
          <mxGeometry x="50" y="34" width="1090" height="1070" as="geometry" />
        </mxCell>
        <mxCell id="3cbIb5Ula2v3a6OA3O9i-23" value="" style="rounded=0;whiteSpace=wrap;html=1;" parent="1" vertex="1">
          <mxGeometry x="80" y="374" width="1030" height="290" as="geometry" />
        </mxCell>
        <mxCell id="3cbIb5Ula2v3a6OA3O9i-22" value="" style="rounded=0;whiteSpace=wrap;html=1;" parent="1" vertex="1">
          <mxGeometry x="80" y="74" width="1030" height="300" as="geometry" />
        </mxCell>
        <mxCell id="3cbIb5Ula2v3a6OA3O9i-21" value="" style="rounded=0;whiteSpace=wrap;html=1;" parent="1" vertex="1">
          <mxGeometry x="80" y="674" width="1030" height="404" as="geometry" />
        </mxCell>
        <mxCell id="3cbIb5Ula2v3a6OA3O9i-5" value="PROCEED TO AUTHENTICATOR BINDING&lt;br&gt;&lt;u&gt;A.4.4.2.B&lt;/u&gt;" style="rounded=0;whiteSpace=wrap;html=1;fontStyle=1;strokeWidth=2;" parent="1" vertex="1">
          <mxGeometry x="930" y="105.5" width="120" height="60" as="geometry" />
        </mxCell>
        <mxCell id="uc8-UBU0-w-xdMf4oaC4-3" style="edgeStyle=orthogonalEdgeStyle;rounded=0;orthogonalLoop=1;jettySize=auto;html=1;exitX=0.5;exitY=1;exitDx=0;exitDy=0;strokeColor=#00CC00;fillColor=default;fontStyle=1;strokeWidth=2;" parent="1" source="3cbIb5Ula2v3a6OA3O9i-6" target="9dworaIkFvqEJkzY-Ycx-1" edge="1">
          <mxGeometry relative="1" as="geometry" />
        </mxCell>
        <mxCell id="3cbIb5Ula2v3a6OA3O9i-6" value="INITIATES UIN GENERATION WITH RID" style="rounded=0;whiteSpace=wrap;html=1;fontStyle=1;strokeWidth=2;" parent="1" vertex="1">
          <mxGeometry x="330" y="150.5" width="120" height="60" as="geometry" />
        </mxCell>
        <mxCell id="3cbIb5Ula2v3a6OA3O9i-10" style="edgeStyle=orthogonalEdgeStyle;rounded=0;orthogonalLoop=1;jettySize=auto;html=1;exitX=1;exitY=0.5;exitDx=0;exitDy=0;entryX=0;entryY=0.5;entryDx=0;entryDy=0;strokeColor=#00CC00;fontSize=11;fillColor=default;fontStyle=1;strokeWidth=2;" parent="1" source="3cbIb5Ula2v3a6OA3O9i-7" target="3cbIb5Ula2v3a6OA3O9i-6" edge="1">
          <mxGeometry relative="1" as="geometry">
            <Array as="points">
              <mxPoint x="305" y="181" />
            </Array>
          </mxGeometry>
        </mxCell>
        <mxCell id="3cbIb5Ula2v3a6OA3O9i-7" value="&lt;div style=&quot;&quot;&gt;IF&amp;nbsp;&lt;/div&gt;&lt;div style=&quot;&quot;&gt;&lt;span style=&quot;background-color: initial;&quot;&gt;ONBOARDING,&amp;nbsp;&lt;/span&gt;&lt;/div&gt;&lt;div style=&quot;&quot;&gt;&lt;span style=&quot;background-color: initial;&quot;&gt;VALIDATION &amp;amp;&lt;/span&gt;&lt;span style=&quot;background-color: initial;&quot;&gt;&amp;nbsp;VERIFICATION&amp;nbsp;&lt;/span&gt;&lt;/div&gt;&lt;div style=&quot;&quot;&gt;&lt;span style=&quot;background-color: initial;&quot;&gt;SUCCESS&lt;/span&gt;&lt;/div&gt;" style="rounded=0;whiteSpace=wrap;html=1;fontStyle=1;strokeWidth=2;shape=rhombus;perimeter=rhombusPerimeter;align=center;" parent="1" vertex="1">
          <mxGeometry x="145" y="784" width="160" height="120" as="geometry" />
        </mxCell>
        <mxCell id="3cbIb5Ula2v3a6OA3O9i-8" value="RECEIVES REQUEST FOR NEW DID" style="rounded=0;whiteSpace=wrap;html=1;fontStyle=1;strokeWidth=2;" parent="1" vertex="1">
          <mxGeometry x="180" y="162" width="90" height="49" as="geometry" />
        </mxCell>
        <mxCell id="3cbIb5Ula2v3a6OA3O9i-16" value="ADMINISTRATOR" style="text;html=1;align=center;verticalAlign=middle;resizable=0;points=[];autosize=1;strokeColor=none;fillColor=none;fontSize=22;fontStyle=1;strokeWidth=2;horizontal=0;" parent="1" vertex="1">
          <mxGeometry x="75" y="134" width="50" height="200" as="geometry" />
        </mxCell>
        <mxCell id="3cbIb5Ula2v3a6OA3O9i-19" value="CREATING NEW DIGITAL ID ACCOUNT" style="text;html=1;align=center;verticalAlign=middle;resizable=0;points=[];autosize=1;strokeColor=none;fillColor=none;fontStyle=1;fontSize=25;" parent="1" vertex="1">
          <mxGeometry x="640" y="35" width="490" height="40" as="geometry" />
        </mxCell>
        <mxCell id="3cbIb5Ula2v3a6OA3O9i-20" value="OB.4" style="text;html=1;align=center;verticalAlign=middle;resizable=0;points=[];autosize=1;strokeColor=none;fillColor=none;fontStyle=1;fontSize=26;" parent="1" vertex="1">
          <mxGeometry x="555" y="35" width="80" height="40" as="geometry" />
        </mxCell>
        <mxCell id="3cbIb5Ula2v3a6OA3O9i-24" value="A" style="ellipse;whiteSpace=wrap;html=1;aspect=fixed;fontSize=28;fontColor=default;strokeWidth=2;fontStyle=1" parent="1" vertex="1">
          <mxGeometry x="80" y="40.25" width="29.5" height="29.5" as="geometry" />
        </mxCell>
        <mxCell id="W2lOm0eTT-cHbFBlJLLI-5" style="edgeStyle=orthogonalEdgeStyle;rounded=0;orthogonalLoop=1;jettySize=auto;html=1;exitX=0.5;exitY=1;exitDx=0;exitDy=0;exitPerimeter=0;entryX=0.5;entryY=0;entryDx=0;entryDy=0;strokeColor=#00CC00;fillColor=default;fontStyle=1;strokeWidth=2;" parent="1" source="W2lOm0eTT-cHbFBlJLLI-2" target="3cbIb5Ula2v3a6OA3O9i-8" edge="1">
          <mxGeometry relative="1" as="geometry" />
        </mxCell>
        <mxCell id="W2lOm0eTT-cHbFBlJLLI-2" value="&lt;b&gt;START&lt;br&gt;(ONLINE)&lt;br&gt;&lt;/b&gt;" style="strokeWidth=2;html=1;shape=mxgraph.flowchart.terminator;whiteSpace=wrap;fillColor=#d5e8d4;strokeColor=#82b366;" parent="1" vertex="1">
          <mxGeometry x="175" y="97.5" width="100" height="40" as="geometry" />
        </mxCell>
        <mxCell id="RPIcNWEztCirEj8pg-TQ-197" style="edgeStyle=orthogonalEdgeStyle;rounded=0;orthogonalLoop=1;jettySize=auto;html=1;exitX=0.5;exitY=0;exitDx=0;exitDy=0;exitPerimeter=0;strokeColor=#00CC00;fillColor=default;fontStyle=1;strokeWidth=2;" parent="1" source="W2lOm0eTT-cHbFBlJLLI-9" target="RPIcNWEztCirEj8pg-TQ-196" edge="1">
          <mxGeometry relative="1" as="geometry">
            <Array as="points">
              <mxPoint x="860" y="384" />
              <mxPoint x="860" y="384" />
            </Array>
          </mxGeometry>
        </mxCell>
        <mxCell id="W2lOm0eTT-cHbFBlJLLI-9" value="&lt;span style=&quot;border-color: var(--border-color);&quot;&gt;&lt;b&gt;TERMINATE PROCESS:&lt;/b&gt;&lt;br&gt;WITH ERROR MESSAGE&lt;br&gt;&lt;/span&gt;" style="strokeWidth=2;html=1;shape=mxgraph.flowchart.terminator;whiteSpace=wrap;fillColor=#f8cecc;strokeColor=#b85450;" parent="1" vertex="1">
          <mxGeometry x="780" y="1014" width="160" height="50" as="geometry" />
        </mxCell>
        <mxCell id="uc8-UBU0-w-xdMf4oaC4-5" style="edgeStyle=orthogonalEdgeStyle;rounded=0;orthogonalLoop=1;jettySize=auto;html=1;exitX=0.5;exitY=0;exitDx=0;exitDy=0;entryX=0.5;entryY=1;entryDx=0;entryDy=0;strokeColor=#00CC00;fillColor=default;fontStyle=1;strokeWidth=2;" parent="1" source="W2lOm0eTT-cHbFBlJLLI-11" target="W2lOm0eTT-cHbFBlJLLI-20" edge="1">
          <mxGeometry relative="1" as="geometry" />
        </mxCell>
        <mxCell id="W2lOm0eTT-cHbFBlJLLI-11" value="STORE APPLICANT INFORMATION TO UIN ACCOUNT WITH ENCRYPTED&amp;nbsp; AND HASHING" style="rounded=0;whiteSpace=wrap;html=1;fontStyle=1;strokeWidth=2;shape=label;boundedLbl=1;backgroundOutline=1;size=15;" parent="1" vertex="1">
          <mxGeometry x="475.5" y="920" width="129" height="88" as="geometry" />
        </mxCell>
        <mxCell id="RPIcNWEztCirEj8pg-TQ-161" style="edgeStyle=orthogonalEdgeStyle;rounded=0;orthogonalLoop=1;jettySize=auto;html=1;exitX=0.75;exitY=1;exitDx=0;exitDy=0;entryX=0;entryY=0.5;entryDx=0;entryDy=0;fontSize=11;verticalAlign=middle;strokeColor=#00CC00;strokeWidth=2;fontStyle=1;fillColor=default;" parent="1" source="W2lOm0eTT-cHbFBlJLLI-20" target="RPIcNWEztCirEj8pg-TQ-160" edge="1">
          <mxGeometry relative="1" as="geometry" />
        </mxCell>
        <mxCell id="W2lOm0eTT-cHbFBlJLLI-20" value="BIND APPLICANT ATTRIBUTES FROM RID TO UIN ACCOUNT" style="rounded=0;whiteSpace=wrap;html=1;fontStyle=1;strokeWidth=2;" parent="1" vertex="1">
          <mxGeometry x="480" y="150.5" width="120" height="60" as="geometry" />
        </mxCell>
        <mxCell id="RPIcNWEztCirEj8pg-TQ-56" value="PUBLIC NETWORK&lt;br style=&quot;border-color: var(--border-color);&quot;&gt;SYSTEMS (CLIENT)" style="text;html=1;align=center;verticalAlign=middle;resizable=0;points=[];autosize=1;strokeColor=none;fillColor=none;fontStyle=1;fontSize=25;strokeWidth=2;horizontal=0;" parent="1" vertex="1">
          <mxGeometry x="90" y="433" width="70" height="190" as="geometry" />
        </mxCell>
        <mxCell id="RPIcNWEztCirEj8pg-TQ-57" value="PRIVATE NETWORK&lt;br&gt;SYSTEMS (SERVER)" style="text;html=1;align=center;verticalAlign=middle;resizable=0;points=[];autosize=1;strokeColor=none;fillColor=none;fontStyle=1;fontSize=25;strokeWidth=2;horizontal=0;" parent="1" vertex="1">
          <mxGeometry x="75" y="795.5" width="80" height="260" as="geometry" />
        </mxCell>
        <mxCell id="RPIcNWEztCirEj8pg-TQ-58" value="&lt;font style=&quot;font-size: 14px;&quot;&gt;PUBLIC NETWORK&lt;/font&gt;" style="swimlane;whiteSpace=wrap;html=1;" parent="1" vertex="1">
          <mxGeometry x="1140" y="405" width="200" height="167" as="geometry" />
        </mxCell>
        <mxCell id="RPIcNWEztCirEj8pg-TQ-59" value="DNS SERVERS" style="text;html=1;strokeColor=none;fillColor=none;align=center;verticalAlign=middle;whiteSpace=wrap;rounded=0;fontSize=14;" parent="RPIcNWEztCirEj8pg-TQ-58" vertex="1">
          <mxGeometry y="27" width="200" height="28" as="geometry" />
        </mxCell>
        <mxCell id="RPIcNWEztCirEj8pg-TQ-60" value="FTP SERVERS" style="text;html=1;strokeColor=none;fillColor=none;align=center;verticalAlign=middle;whiteSpace=wrap;rounded=0;fontSize=14;" parent="RPIcNWEztCirEj8pg-TQ-58" vertex="1">
          <mxGeometry y="55" width="200" height="28" as="geometry" />
        </mxCell>
        <mxCell id="RPIcNWEztCirEj8pg-TQ-61" value="MAIL SERVERS" style="text;html=1;strokeColor=none;fillColor=none;align=center;verticalAlign=middle;whiteSpace=wrap;rounded=0;fontSize=14;" parent="RPIcNWEztCirEj8pg-TQ-58" vertex="1">
          <mxGeometry y="83" width="200" height="28" as="geometry" />
        </mxCell>
        <mxCell id="RPIcNWEztCirEj8pg-TQ-62" value="PROXY SERVERS" style="text;html=1;strokeColor=none;fillColor=none;align=center;verticalAlign=middle;whiteSpace=wrap;rounded=0;fontSize=14;" parent="RPIcNWEztCirEj8pg-TQ-58" vertex="1">
          <mxGeometry y="111" width="200" height="28" as="geometry" />
        </mxCell>
        <mxCell id="RPIcNWEztCirEj8pg-TQ-63" value="WEB SERVERS" style="text;html=1;strokeColor=none;fillColor=none;align=center;verticalAlign=middle;whiteSpace=wrap;rounded=0;fontSize=14;" parent="RPIcNWEztCirEj8pg-TQ-58" vertex="1">
          <mxGeometry y="139" width="200" height="28" as="geometry" />
        </mxCell>
        <mxCell id="RPIcNWEztCirEj8pg-TQ-80" value="" style="group" parent="1" vertex="1" connectable="0">
          <mxGeometry x="440" y="505" width="150" height="78" as="geometry" />
        </mxCell>
        <mxCell id="RPIcNWEztCirEj8pg-TQ-81" value="MASK &amp;amp; ENCRYPT APPLICANT DETAILS&amp;nbsp;" style="rounded=0;whiteSpace=wrap;html=1;fontStyle=1;strokeWidth=2;" parent="RPIcNWEztCirEj8pg-TQ-80" vertex="1">
          <mxGeometry x="30" y="9" width="90" height="60" as="geometry" />
        </mxCell>
        <mxCell id="RPIcNWEztCirEj8pg-TQ-82" value="CA" style="ellipse;whiteSpace=wrap;html=1;fillColor=#dae8fc;strokeColor=#6c8ebf;gradientColor=#7ea6e0;fontStyle=1" parent="RPIcNWEztCirEj8pg-TQ-80" vertex="1">
          <mxGeometry y="52" width="30" height="26" as="geometry" />
        </mxCell>
        <mxCell id="RPIcNWEztCirEj8pg-TQ-83" value="HSM" style="ellipse;whiteSpace=wrap;html=1;fillColor=#dae8fc;strokeColor=#6c8ebf;gradientColor=#7ea6e0;fontStyle=1" parent="RPIcNWEztCirEj8pg-TQ-80" vertex="1">
          <mxGeometry y="26" width="30" height="26" as="geometry" />
        </mxCell>
        <mxCell id="RPIcNWEztCirEj8pg-TQ-84" value="KM" style="ellipse;whiteSpace=wrap;html=1;fillColor=#dae8fc;strokeColor=#6c8ebf;gradientColor=#7ea6e0;fontStyle=1" parent="RPIcNWEztCirEj8pg-TQ-80" vertex="1">
          <mxGeometry width="30" height="26" as="geometry" />
        </mxCell>
        <mxCell id="RPIcNWEztCirEj8pg-TQ-147" value="ADMIN" style="shape=umlActor;verticalLabelPosition=bottom;verticalAlign=top;html=1;outlineConnect=0;fontStyle=1" parent="1" vertex="1">
          <mxGeometry x="115" y="205" width="30" height="60" as="geometry" />
        </mxCell>
        <mxCell id="RPIcNWEztCirEj8pg-TQ-149" value="" style="edgeStyle=orthogonalEdgeStyle;rounded=0;orthogonalLoop=1;jettySize=auto;html=1;exitX=0.5;exitY=1;exitDx=0;exitDy=0;strokeColor=#00CC00;fontSize=11;fillColor=default;fontStyle=1;strokeWidth=2;entryX=0.5;entryY=0;entryDx=0;entryDy=0;entryPerimeter=0;" parent="1" source="3cbIb5Ula2v3a6OA3O9i-8" target="RPIcNWEztCirEj8pg-TQ-148" edge="1">
          <mxGeometry relative="1" as="geometry">
            <Array as="points" />
            <mxPoint x="225" y="224" as="sourcePoint" />
            <mxPoint x="210" y="638" as="targetPoint" />
          </mxGeometry>
        </mxCell>
        <mxCell id="RPIcNWEztCirEj8pg-TQ-150" style="edgeStyle=orthogonalEdgeStyle;rounded=0;orthogonalLoop=1;jettySize=auto;html=1;exitX=0.5;exitY=1;exitDx=0;exitDy=0;strokeColor=#00CC00;fillColor=default;fontStyle=1;strokeWidth=2;" parent="1" source="RPIcNWEztCirEj8pg-TQ-148" target="3cbIb5Ula2v3a6OA3O9i-7" edge="1">
          <mxGeometry relative="1" as="geometry" />
        </mxCell>
        <mxCell id="RPIcNWEztCirEj8pg-TQ-148" value="VERIFY ALL STAGES OF IDENTITY PROOFING COMPLETED" style="rounded=0;whiteSpace=wrap;html=1;fontStyle=1;strokeWidth=2;" parent="1" vertex="1">
          <mxGeometry x="170" y="239" width="110" height="80" as="geometry" />
        </mxCell>
        <mxCell id="RPIcNWEztCirEj8pg-TQ-152" style="edgeStyle=orthogonalEdgeStyle;rounded=0;orthogonalLoop=1;jettySize=auto;html=1;exitX=0.5;exitY=1;exitDx=0;exitDy=0;entryX=0;entryY=0.5;entryDx=0;entryDy=0;entryPerimeter=0;strokeColor=#FF0000;fillColor=default;fontStyle=1;strokeWidth=2;fontSize=13;verticalAlign=bottom;" parent="1" source="3cbIb5Ula2v3a6OA3O9i-7" target="W2lOm0eTT-cHbFBlJLLI-9" edge="1">
          <mxGeometry relative="1" as="geometry">
            <Array as="points">
              <mxPoint x="225" y="1040" />
              <mxPoint x="780" y="1040" />
            </Array>
          </mxGeometry>
        </mxCell>
        <mxCell id="RPIcNWEztCirEj8pg-TQ-164" style="edgeStyle=orthogonalEdgeStyle;rounded=0;orthogonalLoop=1;jettySize=auto;html=1;exitX=0.5;exitY=1;exitDx=0;exitDy=0;fontSize=13;verticalAlign=bottom;strokeColor=#FF0000;strokeWidth=2;fontStyle=1;entryX=0.429;entryY=-0.041;entryDx=0;entryDy=0;entryPerimeter=0;" parent="1" source="RPIcNWEztCirEj8pg-TQ-160" target="RPIcNWEztCirEj8pg-TQ-163" edge="1">
          <mxGeometry relative="1" as="geometry" />
        </mxCell>
        <mxCell id="RPIcNWEztCirEj8pg-TQ-184" style="edgeStyle=orthogonalEdgeStyle;rounded=0;orthogonalLoop=1;jettySize=auto;html=1;exitX=1;exitY=0.5;exitDx=0;exitDy=0;strokeColor=#00CC00;fillColor=default;fontStyle=1;strokeWidth=2;" parent="1" source="RPIcNWEztCirEj8pg-TQ-160" target="RPIcNWEztCirEj8pg-TQ-183" edge="1">
          <mxGeometry relative="1" as="geometry" />
        </mxCell>
        <mxCell id="RPIcNWEztCirEj8pg-TQ-160" value="&lt;div style=&quot;&quot;&gt;IF BINDING SUCCESS&lt;/div&gt;" style="rounded=0;whiteSpace=wrap;html=1;fontStyle=1;strokeWidth=2;shape=rhombus;perimeter=rhombusPerimeter;align=center;" parent="1" vertex="1">
          <mxGeometry x="655" y="775" width="100" height="81" as="geometry" />
        </mxCell>
        <mxCell id="RPIcNWEztCirEj8pg-TQ-181" style="edgeStyle=orthogonalEdgeStyle;rounded=0;orthogonalLoop=1;jettySize=auto;html=1;exitX=0.5;exitY=1;exitDx=0;exitDy=0;fontSize=13;verticalAlign=bottom;strokeColor=#FF0000;fillColor=default;fontStyle=1;strokeWidth=2;" parent="1" source="RPIcNWEztCirEj8pg-TQ-162" target="W2lOm0eTT-cHbFBlJLLI-9" edge="1">
          <mxGeometry relative="1" as="geometry">
            <Array as="points">
              <mxPoint x="705" y="1040" />
            </Array>
          </mxGeometry>
        </mxCell>
        <mxCell id="RPIcNWEztCirEj8pg-TQ-162" value="IF RETRY &lt;br&gt;COUNT &amp;lt;=3" style="rhombus;whiteSpace=wrap;html=1;fontStyle=1;strokeWidth=2;fontSize=11;" parent="1" vertex="1">
          <mxGeometry x="650" y="934.5" width="110" height="90" as="geometry" />
        </mxCell>
        <mxCell id="uc8-UBU0-w-xdMf4oaC4-1" style="edgeStyle=orthogonalEdgeStyle;rounded=0;orthogonalLoop=1;jettySize=auto;html=1;entryX=0.5;entryY=0;entryDx=0;entryDy=0;fontSize=13;verticalAlign=bottom;strokeColor=#FF0000;strokeWidth=2;fontStyle=1;" parent="1" target="RPIcNWEztCirEj8pg-TQ-162" edge="1">
          <mxGeometry relative="1" as="geometry">
            <mxPoint x="705" y="917" as="sourcePoint" />
          </mxGeometry>
        </mxCell>
        <mxCell id="RPIcNWEztCirEj8pg-TQ-163" value="EXCEPTION AND ERROR HANDLING (COUNTER)" style="rounded=0;whiteSpace=wrap;html=1;fontStyle=1;strokeWidth=2;fontSize=11;shape=label;boundedLbl=1;backgroundOutline=1;size=9.769240159254764;" parent="1" vertex="1">
          <mxGeometry x="645" y="886.5" width="140" height="30" as="geometry" />
        </mxCell>
        <mxCell id="RPIcNWEztCirEj8pg-TQ-165" style="edgeStyle=orthogonalEdgeStyle;rounded=0;orthogonalLoop=1;jettySize=auto;html=1;exitX=0;exitY=0.5;exitDx=0;exitDy=0;entryX=1;entryY=0.5;entryDx=0;entryDy=0;strokeColor=#00CC00;fillColor=default;fontStyle=1;strokeWidth=2;jumpStyle=arc;jumpSize=11;" parent="1" source="RPIcNWEztCirEj8pg-TQ-162" target="W2lOm0eTT-cHbFBlJLLI-20" edge="1">
          <mxGeometry relative="1" as="geometry">
            <Array as="points">
              <mxPoint x="620" y="979" />
              <mxPoint x="620" y="181" />
            </Array>
          </mxGeometry>
        </mxCell>
        <mxCell id="RPIcNWEztCirEj8pg-TQ-166" value="&lt;font style=&quot;font-size: 14px;&quot;&gt;LEGEND&lt;/font&gt;" style="swimlane;whiteSpace=wrap;html=1;" parent="1" vertex="1">
          <mxGeometry x="1140" y="75" width="210" height="255" as="geometry" />
        </mxCell>
        <mxCell id="RPIcNWEztCirEj8pg-TQ-167" value="KM" style="ellipse;whiteSpace=wrap;html=1;fillColor=#dae8fc;strokeColor=#6c8ebf;gradientColor=#7ea6e0;fontStyle=1" parent="RPIcNWEztCirEj8pg-TQ-166" vertex="1">
          <mxGeometry x="10" y="30" width="30" height="26" as="geometry" />
        </mxCell>
        <mxCell id="RPIcNWEztCirEj8pg-TQ-168" value="IDA" style="ellipse;whiteSpace=wrap;html=1;fillColor=#dae8fc;strokeColor=#6c8ebf;gradientColor=#7ea6e0;fontStyle=1" parent="RPIcNWEztCirEj8pg-TQ-166" vertex="1">
          <mxGeometry x="10" y="131" width="30" height="26" as="geometry" />
        </mxCell>
        <mxCell id="RPIcNWEztCirEj8pg-TQ-169" value="HSM" style="ellipse;whiteSpace=wrap;html=1;fillColor=#dae8fc;strokeColor=#6c8ebf;gradientColor=#7ea6e0;fontStyle=1" parent="RPIcNWEztCirEj8pg-TQ-166" vertex="1">
          <mxGeometry x="10" y="91" width="30" height="26" as="geometry" />
        </mxCell>
        <mxCell id="RPIcNWEztCirEj8pg-TQ-170" value="KR" style="ellipse;whiteSpace=wrap;html=1;fillColor=#dae8fc;strokeColor=#6c8ebf;gradientColor=#7ea6e0;fontStyle=1" parent="RPIcNWEztCirEj8pg-TQ-166" vertex="1">
          <mxGeometry x="10" y="59" width="30" height="26" as="geometry" />
        </mxCell>
        <mxCell id="RPIcNWEztCirEj8pg-TQ-171" value="Key Manager" style="text;html=1;strokeColor=none;fillColor=none;align=center;verticalAlign=middle;whiteSpace=wrap;rounded=0;fontSize=14;" parent="RPIcNWEztCirEj8pg-TQ-166" vertex="1">
          <mxGeometry x="40" y="30" width="160" height="28" as="geometry" />
        </mxCell>
        <mxCell id="RPIcNWEztCirEj8pg-TQ-172" value="Key Revocation" style="text;html=1;strokeColor=none;fillColor=none;align=center;verticalAlign=middle;whiteSpace=wrap;rounded=0;fontSize=14;" parent="RPIcNWEztCirEj8pg-TQ-166" vertex="1">
          <mxGeometry x="40" y="58" width="160" height="28" as="geometry" />
        </mxCell>
        <mxCell id="RPIcNWEztCirEj8pg-TQ-173" value="Hardware Security Module" style="text;html=1;strokeColor=none;fillColor=none;align=center;verticalAlign=middle;whiteSpace=wrap;rounded=0;fontSize=14;" parent="RPIcNWEztCirEj8pg-TQ-166" vertex="1">
          <mxGeometry x="40" y="90" width="160" height="28" as="geometry" />
        </mxCell>
        <mxCell id="RPIcNWEztCirEj8pg-TQ-174" value="ID Authentication (DB)" style="text;html=1;strokeColor=none;fillColor=none;align=center;verticalAlign=middle;whiteSpace=wrap;rounded=0;fontSize=14;" parent="RPIcNWEztCirEj8pg-TQ-166" vertex="1">
          <mxGeometry x="40" y="130" width="160" height="28" as="geometry" />
        </mxCell>
        <mxCell id="RPIcNWEztCirEj8pg-TQ-175" value="AC" style="ellipse;whiteSpace=wrap;html=1;fillColor=#dae8fc;strokeColor=#6c8ebf;gradientColor=#7ea6e0;fontStyle=1" parent="RPIcNWEztCirEj8pg-TQ-166" vertex="1">
          <mxGeometry x="10" y="161" width="30" height="26" as="geometry" />
        </mxCell>
        <mxCell id="RPIcNWEztCirEj8pg-TQ-176" value="Access Control" style="text;html=1;strokeColor=none;fillColor=none;align=center;verticalAlign=middle;whiteSpace=wrap;rounded=0;fontSize=14;" parent="RPIcNWEztCirEj8pg-TQ-166" vertex="1">
          <mxGeometry x="40" y="160" width="160" height="28" as="geometry" />
        </mxCell>
        <mxCell id="RPIcNWEztCirEj8pg-TQ-177" value="Certificate Authority" style="text;html=1;strokeColor=none;fillColor=none;align=center;verticalAlign=middle;whiteSpace=wrap;rounded=0;fontSize=14;" parent="RPIcNWEztCirEj8pg-TQ-166" vertex="1">
          <mxGeometry x="40" y="190" width="160" height="28" as="geometry" />
        </mxCell>
        <mxCell id="RPIcNWEztCirEj8pg-TQ-178" value="CA" style="ellipse;whiteSpace=wrap;html=1;fillColor=#dae8fc;strokeColor=#6c8ebf;gradientColor=#7ea6e0;fontStyle=1" parent="RPIcNWEztCirEj8pg-TQ-166" vertex="1">
          <mxGeometry x="10" y="191" width="30" height="26" as="geometry" />
        </mxCell>
        <mxCell id="9dworaIkFvqEJkzY-Ycx-3" value="UIN" style="text;html=1;align=center;verticalAlign=middle;resizable=0;points=[];autosize=1;strokeColor=none;fillColor=none;" parent="RPIcNWEztCirEj8pg-TQ-166" vertex="1">
          <mxGeometry y="225" width="40" height="30" as="geometry" />
        </mxCell>
        <mxCell id="9dworaIkFvqEJkzY-Ycx-4" value="Unique Identification Number" style="text;html=1;align=center;verticalAlign=middle;resizable=0;points=[];autosize=1;strokeColor=none;fillColor=none;" parent="RPIcNWEztCirEj8pg-TQ-166" vertex="1">
          <mxGeometry x="30" y="225" width="180" height="30" as="geometry" />
        </mxCell>
        <mxCell id="RPIcNWEztCirEj8pg-TQ-182" value="NOTIFICATION GENERATOR" style="rounded=0;whiteSpace=wrap;html=1;fontStyle=1;strokeWidth=2;" parent="1" vertex="1">
          <mxGeometry x="730" y="727" width="180" height="27" as="geometry" />
        </mxCell>
        <mxCell id="RPIcNWEztCirEj8pg-TQ-195" style="edgeStyle=orthogonalEdgeStyle;rounded=0;orthogonalLoop=1;jettySize=auto;html=1;exitX=0.5;exitY=0;exitDx=0;exitDy=0;entryX=0;entryY=0.5;entryDx=0;entryDy=0;strokeColor=#00CC00;fillColor=default;fontStyle=1;strokeWidth=2;" parent="1" source="RPIcNWEztCirEj8pg-TQ-183" target="3cbIb5Ula2v3a6OA3O9i-5" edge="1">
          <mxGeometry relative="1" as="geometry" />
        </mxCell>
        <mxCell id="RPIcNWEztCirEj8pg-TQ-200" style="edgeStyle=orthogonalEdgeStyle;rounded=0;orthogonalLoop=1;jettySize=auto;html=1;exitX=1;exitY=0.5;exitDx=0;exitDy=0;strokeColor=#00CC00;fillColor=default;fontStyle=1;strokeWidth=2;" parent="1" source="RPIcNWEztCirEj8pg-TQ-183" target="RPIcNWEztCirEj8pg-TQ-191" edge="1">
          <mxGeometry relative="1" as="geometry" />
        </mxCell>
        <mxCell id="RPIcNWEztCirEj8pg-TQ-183" value="RECEIVES NEW DID ACCOUNT DETAILS WITH UIN" style="rounded=0;whiteSpace=wrap;html=1;fontStyle=1;strokeWidth=2;" parent="1" vertex="1">
          <mxGeometry x="714" y="178" width="120" height="63" as="geometry" />
        </mxCell>
        <mxCell id="RPIcNWEztCirEj8pg-TQ-185" value="" style="group" parent="1" vertex="1" connectable="0">
          <mxGeometry x="160" y="526" width="150" height="78" as="geometry" />
        </mxCell>
        <mxCell id="RPIcNWEztCirEj8pg-TQ-186" value="MASK &amp;amp; ENCRYPT RID NUMBER" style="rounded=0;whiteSpace=wrap;html=1;fontStyle=1;strokeWidth=2;" parent="RPIcNWEztCirEj8pg-TQ-185" vertex="1">
          <mxGeometry x="30" y="9" width="90" height="60" as="geometry" />
        </mxCell>
        <mxCell id="RPIcNWEztCirEj8pg-TQ-187" value="CA" style="ellipse;whiteSpace=wrap;html=1;fillColor=#dae8fc;strokeColor=#6c8ebf;gradientColor=#7ea6e0;fontStyle=1" parent="RPIcNWEztCirEj8pg-TQ-185" vertex="1">
          <mxGeometry y="52" width="30" height="26" as="geometry" />
        </mxCell>
        <mxCell id="RPIcNWEztCirEj8pg-TQ-188" value="HSM" style="ellipse;whiteSpace=wrap;html=1;fillColor=#dae8fc;strokeColor=#6c8ebf;gradientColor=#7ea6e0;fontStyle=1" parent="RPIcNWEztCirEj8pg-TQ-185" vertex="1">
          <mxGeometry y="26" width="30" height="26" as="geometry" />
        </mxCell>
        <mxCell id="RPIcNWEztCirEj8pg-TQ-189" value="KM" style="ellipse;whiteSpace=wrap;html=1;fillColor=#dae8fc;strokeColor=#6c8ebf;gradientColor=#7ea6e0;fontStyle=1" parent="RPIcNWEztCirEj8pg-TQ-185" vertex="1">
          <mxGeometry width="30" height="26" as="geometry" />
        </mxCell>
        <mxCell id="RPIcNWEztCirEj8pg-TQ-190" value="" style="edgeStyle=orthogonalEdgeStyle;rounded=0;orthogonalLoop=1;jettySize=auto;html=1;strokeColor=#00CC00;fontStyle=1;strokeWidth=2;" parent="1" source="RPIcNWEztCirEj8pg-TQ-191" target="RPIcNWEztCirEj8pg-TQ-192" edge="1">
          <mxGeometry relative="1" as="geometry" />
        </mxCell>
        <mxCell id="RPIcNWEztCirEj8pg-TQ-191" value="LOGS THE PROCESS AND STATUS" style="rounded=0;whiteSpace=wrap;html=1;fontStyle=1;strokeWidth=2;shape=label;boundedLbl=1;backgroundOutline=1;size=15;" parent="1" vertex="1">
          <mxGeometry x="930" y="820" width="120" height="65" as="geometry" />
        </mxCell>
        <mxCell id="RPIcNWEztCirEj8pg-TQ-192" value="&lt;b&gt;END&lt;/b&gt;" style="strokeWidth=2;html=1;shape=mxgraph.flowchart.terminator;whiteSpace=wrap;fillColor=#f8cecc;strokeColor=#b85450;" parent="1" vertex="1">
          <mxGeometry x="940" y="914" width="100" height="40" as="geometry" />
        </mxCell>
        <mxCell id="RPIcNWEztCirEj8pg-TQ-193" value="IDA" style="ellipse;whiteSpace=wrap;html=1;fillColor=#dae8fc;strokeColor=#6c8ebf;gradientColor=#7ea6e0;fontStyle=1" parent="1" vertex="1">
          <mxGeometry x="930" y="794" width="30" height="26" as="geometry" />
        </mxCell>
        <mxCell id="RPIcNWEztCirEj8pg-TQ-198" style="edgeStyle=orthogonalEdgeStyle;rounded=0;orthogonalLoop=1;jettySize=auto;html=1;exitX=1;exitY=0.5;exitDx=0;exitDy=0;strokeColor=#00CC00;fillColor=default;fontStyle=1;strokeWidth=2;" parent="1" source="RPIcNWEztCirEj8pg-TQ-196" target="RPIcNWEztCirEj8pg-TQ-191" edge="1">
          <mxGeometry relative="1" as="geometry" />
        </mxCell>
        <mxCell id="RPIcNWEztCirEj8pg-TQ-196" value="RECEIVE NEW DID ACCOUNT FAILURE WITH ERROR MESSAGE" style="rounded=0;whiteSpace=wrap;html=1;fontStyle=1;strokeWidth=2;" parent="1" vertex="1">
          <mxGeometry x="800" y="256" width="120" height="63" as="geometry" />
        </mxCell>
        <mxCell id="RPIcNWEztCirEj8pg-TQ-203" value="" style="group" parent="1" vertex="1" connectable="0">
          <mxGeometry x="699" y="494" width="150" height="78" as="geometry" />
        </mxCell>
        <mxCell id="RPIcNWEztCirEj8pg-TQ-204" value="MASK &amp;amp; ENCRYPT DID ACCOUNT DETAILS" style="rounded=0;whiteSpace=wrap;html=1;fontStyle=1;strokeWidth=2;" parent="RPIcNWEztCirEj8pg-TQ-203" vertex="1">
          <mxGeometry x="30" y="9" width="110" height="60" as="geometry" />
        </mxCell>
        <mxCell id="RPIcNWEztCirEj8pg-TQ-205" value="CA" style="ellipse;whiteSpace=wrap;html=1;fillColor=#dae8fc;strokeColor=#6c8ebf;gradientColor=#7ea6e0;fontStyle=1" parent="RPIcNWEztCirEj8pg-TQ-203" vertex="1">
          <mxGeometry y="52" width="30" height="26" as="geometry" />
        </mxCell>
        <mxCell id="RPIcNWEztCirEj8pg-TQ-206" value="HSM" style="ellipse;whiteSpace=wrap;html=1;fillColor=#dae8fc;strokeColor=#6c8ebf;gradientColor=#7ea6e0;fontStyle=1" parent="RPIcNWEztCirEj8pg-TQ-203" vertex="1">
          <mxGeometry y="26" width="30" height="26" as="geometry" />
        </mxCell>
        <mxCell id="RPIcNWEztCirEj8pg-TQ-207" value="KM" style="ellipse;whiteSpace=wrap;html=1;fillColor=#dae8fc;strokeColor=#6c8ebf;gradientColor=#7ea6e0;fontStyle=1" parent="RPIcNWEztCirEj8pg-TQ-203" vertex="1">
          <mxGeometry width="30" height="26" as="geometry" />
        </mxCell>
        <mxCell id="RPIcNWEztCirEj8pg-TQ-208" value="IDA" style="ellipse;whiteSpace=wrap;html=1;fillColor=#dae8fc;strokeColor=#6c8ebf;gradientColor=#7ea6e0;fontStyle=1" parent="1" vertex="1">
          <mxGeometry x="475.5" y="894" width="30" height="26" as="geometry" />
        </mxCell>
        <mxCell id="RPIcNWEztCirEj8pg-TQ-209" value="KM" style="ellipse;whiteSpace=wrap;html=1;fillColor=#dae8fc;strokeColor=#6c8ebf;gradientColor=#7ea6e0;fontStyle=1" parent="1" vertex="1">
          <mxGeometry x="445.5" y="920" width="30" height="26" as="geometry" />
        </mxCell>
        <mxCell id="RPIcNWEztCirEj8pg-TQ-211" value="HSM" style="ellipse;whiteSpace=wrap;html=1;fillColor=#dae8fc;strokeColor=#6c8ebf;gradientColor=#7ea6e0;fontStyle=1" parent="1" vertex="1">
          <mxGeometry x="445.5" y="982" width="30" height="26" as="geometry" />
        </mxCell>
        <mxCell id="9dworaIkFvqEJkzY-Ycx-1" value="GENERATE UIN&lt;br style=&quot;border-color: var(--border-color); font-size: 11px;&quot;&gt;&lt;span style=&quot;font-size: 11px; background-color: rgb(255, 255, 255);&quot;&gt;FOR APPLICANT&lt;/span&gt;" style="rounded=0;whiteSpace=wrap;html=1;fontStyle=1;strokeWidth=2;" parent="1" vertex="1">
          <mxGeometry x="330.5" y="820" width="120" height="57.5" as="geometry" />
        </mxCell>
        <mxCell id="RPIcNWEztCirEj8pg-TQ-159" value="NOTIFICATION GENERATOR" style="rounded=0;whiteSpace=wrap;html=1;fontStyle=1;strokeWidth=2;" parent="1" vertex="1">
          <mxGeometry x="330" y="727" width="120" height="37.5" as="geometry" />
        </mxCell>
        <mxCell id="RPIcNWEztCirEj8pg-TQ-138" value="" style="group" parent="1" vertex="1" connectable="0">
          <mxGeometry x="80" y="364" width="1030" height="60" as="geometry" />
        </mxCell>
        <mxCell id="RPIcNWEztCirEj8pg-TQ-139" value="" style="group" parent="RPIcNWEztCirEj8pg-TQ-138" vertex="1" connectable="0">
          <mxGeometry y="2" width="1030" height="40" as="geometry" />
        </mxCell>
        <mxCell id="RPIcNWEztCirEj8pg-TQ-140" value="&lt;b&gt;SINGLE/ DUAL FIREWALL&lt;/b&gt;" style="shape=label;whiteSpace=wrap;html=1;boundedLbl=1;backgroundOutline=1;darkOpacity=0.05;darkOpacity2=0.1;fillColor=#e51400;fontColor=#ffffff;strokeColor=#B20000;rounded=0;" parent="RPIcNWEztCirEj8pg-TQ-139" vertex="1">
          <mxGeometry width="1030" height="20" as="geometry" />
        </mxCell>
        <mxCell id="RPIcNWEztCirEj8pg-TQ-141" value="&lt;b&gt;IDS, IPS, HONEYPOT&lt;/b&gt;" style="shape=label;whiteSpace=wrap;html=1;boundedLbl=1;backgroundOutline=1;darkOpacity=0.05;darkOpacity2=0.1;fillColor=#f0a30a;strokeColor=#BD7000;rounded=0;fontColor=#000000;" parent="RPIcNWEztCirEj8pg-TQ-139" vertex="1">
          <mxGeometry y="20" width="1030" height="20" as="geometry" />
        </mxCell>
        <mxCell id="RPIcNWEztCirEj8pg-TQ-142" value="API/ HTTPS (SSL/TLS)" style="shape=label;whiteSpace=wrap;html=1;boundedLbl=1;backgroundOutline=1;darkOpacity=0.05;darkOpacity2=0.1;fillColor=#f8cecc;strokeColor=#b85450;rounded=0;fontStyle=1" parent="RPIcNWEztCirEj8pg-TQ-138" vertex="1">
          <mxGeometry y="-18" width="1030" height="20" as="geometry" />
        </mxCell>
        <mxCell id="RPIcNWEztCirEj8pg-TQ-154" value="" style="group" parent="1" vertex="1" connectable="0">
          <mxGeometry x="80" y="667" width="1030" height="60" as="geometry" />
        </mxCell>
        <mxCell id="RPIcNWEztCirEj8pg-TQ-155" value="" style="group" parent="RPIcNWEztCirEj8pg-TQ-154" vertex="1" connectable="0">
          <mxGeometry y="2" width="1030" height="40" as="geometry" />
        </mxCell>
        <mxCell id="RPIcNWEztCirEj8pg-TQ-156" value="&lt;b&gt;SINGLE/ DUAL FIREWALL&lt;/b&gt;" style="shape=label;whiteSpace=wrap;html=1;boundedLbl=1;backgroundOutline=1;darkOpacity=0.05;darkOpacity2=0.1;fillColor=#e51400;fontColor=#ffffff;strokeColor=#B20000;rounded=0;" parent="RPIcNWEztCirEj8pg-TQ-155" vertex="1">
          <mxGeometry width="1030" height="20" as="geometry" />
        </mxCell>
        <mxCell id="RPIcNWEztCirEj8pg-TQ-157" value="&lt;b&gt;IDS, IPS, HONEYPOT&lt;/b&gt;" style="shape=label;whiteSpace=wrap;html=1;boundedLbl=1;backgroundOutline=1;darkOpacity=0.05;darkOpacity2=0.1;fillColor=#f0a30a;strokeColor=#BD7000;rounded=0;fontColor=#000000;" parent="RPIcNWEztCirEj8pg-TQ-155" vertex="1">
          <mxGeometry y="20" width="1030" height="20" as="geometry" />
        </mxCell>
        <mxCell id="RPIcNWEztCirEj8pg-TQ-158" value="API/ HTTPS (SSL/TLS)" style="shape=label;whiteSpace=wrap;html=1;boundedLbl=1;backgroundOutline=1;darkOpacity=0.05;darkOpacity2=0.1;fillColor=#f8cecc;strokeColor=#b85450;rounded=0;fontStyle=1" parent="RPIcNWEztCirEj8pg-TQ-154" vertex="1">
          <mxGeometry y="-18" width="1030" height="20" as="geometry" />
        </mxCell>
        <mxCell id="uc8-UBU0-w-xdMf4oaC4-4" style="edgeStyle=orthogonalEdgeStyle;rounded=0;orthogonalLoop=1;jettySize=auto;html=1;exitX=0.5;exitY=1;exitDx=0;exitDy=0;entryX=0;entryY=0.5;entryDx=0;entryDy=0;entryPerimeter=0;strokeColor=#00CC00;fillColor=default;fontStyle=1;strokeWidth=2;" parent="1" source="9dworaIkFvqEJkzY-Ycx-1" target="W2lOm0eTT-cHbFBlJLLI-11" edge="1">
          <mxGeometry relative="1" as="geometry" />
        </mxCell>
        <mxCell id="z_VuECmpODNMR9vdrxXJ-1" value="&lt;div style=&quot;font-size: 18px;&quot;&gt;&lt;font style=&quot;font-size: 18px;&quot;&gt;&lt;b style=&quot;font-size: 18px;&quot;&gt;Purpose:&lt;/b&gt;&lt;/font&gt;&lt;/div&gt;&lt;div style=&quot;font-size: 18px;&quot;&gt;This SOP s&lt;span style=&quot;background-color: rgb(255, 255, 255); color: rgb(13, 13, 13); font-size: 18px; white-space-collapse: preserve;&quot;&gt;pecifies the procedure for creating a new digital ID account after verification.&lt;/span&gt;&lt;br style=&quot;font-size: 18px;&quot;&gt;&lt;/div&gt;" style="whiteSpace=wrap;html=1;align=left;rounded=0;strokeWidth=2;verticalAlign=middle;fontFamily=Helvetica;fontSize=18;fontStyle=0;" vertex="1" parent="1">
          <mxGeometry x="50" y="-26" width="1090" height="60" as="geometry" />
        </mxCell>
      </root>
    </mxGraphModel>
  </diagram>
</mxfile>
